<?xml version="1.0" encoding="utf-8"?>
<!-- Generator: Adobe Illustrator 23.0.1, SVG Export Plug-In . SVG Version: 6.00 Build 0)  -->
<svg version="1.1" id="Layer_1" xmlns="http://www.w3.org/2000/svg" xmlns:xlink="http://www.w3.org/1999/xlink" x="0px" y="0px"
	 viewBox="0 0 600 600" style="enable-background:new 0 0 600 600;" xml:space="preserve">
<style type="text/css">
	.st0{fill:#FFFFFF;}
	.st1{fill:#572923;}
	.st2{fill:#C50015;}
	.st3{fill:#C9B27E;}
</style>
<g>
	<path class="st0" d="M396.5,17.9c12.9,1.3,20.2,7.9,34,20.3c2.1,1.9,40.7,0.3,51.6,31.8c6.4,18.4,8.5,56.3,7.6,69.8
		c-0.6,10.4-1.6,24.8-1.8,28.3c1.8,3.4,11.4,6.3,7,29c-4.5,22.7-18,27.6-23.6,30.4c-7,3.4-16,19.3-19.9,23.5
		c7.6,5.5,28.4,6.8,29.7,27.8c0.3,3.9-1.5,7.8-4,11c9.7,1.7,18.6,8.7,21.6,17.9c4.3,13.2,1.5,24.2,0.9,27.4c4.6-3.2,32.6-24,55-20.7
		c41.8,6.1,22.6,49,20.5,53.8c-1.3,3,21.1,1.9,21.9,22.5c0.2,5.5-2.2,10.8-3.3,16.2c0.7,2.1,5.7,7.9,4,14.5
		c-0.7,2.6-7.5,18.3-29,33.9c-17.2,12.5-31.6,8.8-34.5,8.2c-1.8-0.6-8.8,9.2-31.7,11.5c-19.5,1.9-28.7-4.7-31.5-6.2
		c-1.6,1.7-7.3,9.3-14.3,13c-32.8,17.6-51.2,9.5-57.6,8.1c-1-0.2-12.5,9.2-18.4,11.6c-20,8-26.1,3.5-27.8,3.5
		c-1.4,0.6-6.7,5.6-21.4,9.6c-28.1,7.5-37.4-2.5-40.5-4.1c-2.8,3.2-13.6,17.7-41.7,23.4c-12.2,2.5-26.3-1.4-30.7-2.5
		c-1.1-0.3-1.9,0.7-2.8,1.2c-7.2,5.6-17.6,11.9-39.4,17.6c-12.2,3.2-25.8-0.4-29.1-0.6c-3.9,2.5-7.5,5.4-11.5,7.7
		c-21.8,12.9-43,2.5-45.1,1.4c-2.4,2.8-9.3,11.1-19.4,16.3c-22.6,11.8-43.6,9.8-50.3-11.7c-11.3-36.3,3.6-79.1,3.6-79.1
		c-7.2-2-16.5-4.5-20.3-18.2c-12.1-43.4,21.6-55.9,28.7-53.8c2.9-4.2,10.4-11.1,10.4-11.1c-11.5-8.1-15.8-28.3-14.5-45.7
		c0.2-2.9-11.3-3.6-15.5-11.8c-1.8-3.5-14.9-25,16.4-52.7c4.4-3.9,16.6-11.5,17-12.8c3.8-10.6,20.1-64.3,54.3-64.8
		c4.1-0.1,8.2,1.5,11.6,3.9c7.6-7,22.4-23.6,48.7-18.5c19.1,3.7,28,17.3,30.4,21.6c3.9-6.7,13.7-26.4,32.9-35.5
		c16.6-7.9,33-3.9,36.7-2.5c3.8-4.5,22.3-15.2,38.6-4.3c18,12,9.8,35.5,8.1,42.6c5.7-0.1,11-2.3,16.6-3.2c-0.7-3.7-0.6-21-1.6-24.1
		c-4.2-4.2-20.2-15.9-11.5-47.3c1.9-6.8,8.5-11.7,15.2-14.1c0.9-2.7,3.3-11.5,3.5-13.1c-6.2-0.7-13-1.3-17.9-5.6
		c-2.6-2-3.8-5.1-6.3-7.2c-11.8-9.9-5.3-22.6-2.4-25.5c4.3-5,15.8,0.2,17.5-5.8C332.6,33.9,368.3,15.1,396.5,17.9z"/>
	<path class="st1" d="M409.7,38.8c4.1,3.1,6.3,6.2,9.6,9.4c-2-0.1-5.8-0.6-5.8-0.6s-1-0.8-1.5-1.4c-5.7-6.7-29.1-20.2-42.8,5.8
		c-2.5,4.8-11.3,32.9-28,45c-3.7,2.6-11.7,4-15.9,2.1c3.3-0.1,6.6-0.2,9.6-1.8c14.4-7.6,20.8-26.3,22.4-31.5
		c4.9-16.7,13.1-23.2,16.8-26.4c-4.2,2.1-18.5,11.3-22.3,24.5c-1,3.4-4,19-16.6,26.7c-5.2,3.2-11.8,3.1-17.1,0.5
		c3.4,0.1,7.3,0.8,10.7-0.3c10.7-3.5,12.1-16.3,13.5-21.7c5.5-21.7,24.6-31.3,31.9-33.7C391,29.7,403.6,34.2,409.7,38.8z"/>
	<path class="st2" d="M409.7,51.1c23.1,1.5,35.4,6.5,43.7,10.5c6.3,3,12.3,7.4,15.1,13.9c5.4,12.6,6.2,50.8,6.1,64.6
		c-7.8-8-26.3-21.8-70.8-26.6c-33.5-3.6-50.1,4.8-55,6.9c4.2-13.5,16.8-49.8,28.4-59.6C382,56.8,390.8,49.8,409.7,51.1z"/>
	<path class="st3" d="M401.5,120c15.3,1.5,30.6,4.3,44.7,10.5c21.6,9.5,26.6,16.7,27.9,19.5c1,2.8,0.6,5.9,0.5,8.8
		c-1.9-1.6-5.7-9.9-28.5-21.2c-7.7-3.8-31.5-11.2-61.4-11.8c-19.9-0.4-39.5,9.2-39.6,9.8c0.4-2.6,1.4-6.2,3.8-7.8
		C358,121.5,377,117.7,401.5,120z"/>
	<path class="st1" d="M344.2,143c3.9-2.9,8.4-5,12.6-7.4c-3.7,7.4-5.8,14.8-6.8,23.7c-0.6,5.4,0,10.9,0.3,16.3c-1.3,0-2.9,0.7-4-0.3
		c-2.7-2.3-4.2-5.7-6.4-8.4c-0.8-1.3-2.3-2.4-1.9-4.1c1.9-1.3,3.7,1.2,5.4,1.9c0-3.1-0.1-6.3,0-9.4c-1.7-1-2.8-2.7-5.2-2.8
		c-8.6-0.3-4,13.5-2.7,17.8c1.9,5,5.9,9.4,11.1,10.8c-0.5,13.3,1.1,27.1,7.5,39c4.4,8.3,11.5,15.2,19.9,19.1
		c35.2,16.3,56.5,0.2,63.8-6.7c6.3-5.9,11.3-13,15.4-20.5c6.8-0.9,12.9-5.2,16.4-11.1c1.9-3.2,7.5-13.9,2.7-16.5
		c-3.7-2-5.9,3.5-6.7,5.1c0.9-0.1,3.9-0.4,1.3,2.9c-2.3,3-5,5.8-7.3,8.7c-0.8-0.4-1.6-0.8-2.3-1.2c1.5-9,5-17.4,6.7-26.3
		c1.1-5.5,1.2-11.2,1.1-16.8c2.6,2.5,5,5.1,7.4,7.8c-0.3,2.8-0.6,5.6-1.4,8.3c-0.4,1.6-0.9,3.9-0.9,4.8c0,0,1.9-0.8,4.6,0
		c6.7,1.9,7.8,11.1,5.1,18c-1.8,4.6-4.8,8.7-8.1,12.4c-5.4,5.9-13.5,9.3-16.2,11.4c-3.1,2.3-5.1,5.6-7.1,8.8
		c-2.1,3.4-4.8,6.3-7.5,9.2c-4.1,4.2-8.6,8.2-13.8,11c-1,0.6-2,1.3-3.1,1.7c-26.4,8.3-50.4-1-58.4-6.9c-5.8-4.5-10.4-10.2-14.8-15.9
		c-0.4-0.6-0.8-1.2-1.3-1.8c-4-5.8-6.5-12.6-8.1-19.5c-0.4-2.9-0.3-15.9-2-19c-1.9-3.1-5.7-4.5-7.7-7.5c-1.8-3-3-6.4-3.2-9.8
		c-0.3-4.7-1.3-8.4-0.6-14.2c0.4-3.4,2.5-6.5,5.5-8c3.1-1.4,6.4-0.2,9.6,0.4C343.6,146.2,343.9,144.6,344.2,143L344.2,143z"/>
	<path class="st1" d="M377.6,139.3c3-2,6.9-1.7,10.2-0.4c4.3,1.8,8.1,4.5,11.1,8.1c-6.2-2.6-13-5.7-19.8-4.1
		c-5.5,1.6-8.3,7.1-10.5,11.9C369.6,148.8,372.3,142.6,377.6,139.3L377.6,139.3z"/>
	<path class="st1" d="M423.6,151c4.5-2.5,9.8-3.6,15-3.2c3.2,0.3,6.4,1.9,8,4.8c3.3,5.1,3.1,11.5,2.2,17.3
		c-0.5-5.2-0.8-11.3-5.1-14.9C438,150.7,430.4,150.5,423.6,151L423.6,151z"/>
	<path class="st1" d="M380,154.1c5.5-1.7,12,0,16,4.2c2.2,2.3,2.8,4.6,2.9,7.3c-3.3-0.5-6.6-1.1-9.9-1.6c0,0-2.1-4.5-7.3-6
		c-4.7-1.3-9.3,2.3-9.3,2.3C373.7,158.1,376.1,155.3,380,154.1z"/>
	<path class="st1" d="M422.2,164.3c5.2-2,13.2,0.1,17.6,4.7c2.2,2.3,2.8,5.5,2.5,8.6c-3.2-1.2-6.4-2.3-9.7-3.4
		c-1.4-2.4-3.2-5.1-6.1-5.8c-5.9-1.5-10.1,1.6-10.1,1.6C417.2,168,419.7,165.3,422.2,164.3z"/>
	<path class="st1" d="M362.2,180.4c2-1.7,5.2-2.4,7.5-1c1.6,0.9,2.4,3.9,2.2,4.5c0.3-1-2.7-3-4.6-2.3c-3.7,1-4.8,7.7-0.6,8.6
		c7.8,1.8,15.1-5.2,23-5.9c4.7-0.4,9.2,2.4,12.3,5.8c5-1.6,10.9-2,15.4,1.2c5.2,3.8,9.9,8.4,15.9,11c1.5,0.7,3.4,0.6,4.7-0.6
		c2.5-2,1.3-6.6-1.5-7.7c-1.8-0.7-3.9,0.8-3.9,0.8c-0.1-1.5,1.5-2.8,2.7-3.1c2.7-0.6,5.5,0.6,7,2.8c2.9,4.3,2.1,10.2-1,14.2
		c-3,3.9-8.2,5.3-12.9,5.5c-11.1,0.7-21.9-5.3-28.3-14.2c-6.4,3.7-13.7,6.2-21.2,5.6c-6.4-0.4-13.8-2.7-17.5-7
		C356.9,193.5,356.6,184.7,362.2,180.4L362.2,180.4z"/>
	<path class="st1" d="M282.6,187.7c3.9-0.6,7.8,1.7,9.9,4.9c4.9,6.8,4,16.8-1.5,22.9c-3.3,3.5-7,7.8-12.3,7.2
		c-4.4,0.3-6.8-4.1-7.5-7.7c-1.1-6.6,0.2-13.5,3.3-19.4C276.1,192.1,278.6,188.5,282.6,187.7L282.6,187.7z"/>
	<path class="st3" d="M102.1,229.1c-1.3,2.1-2.4,4.3-3.8,6.3c-9,14.6-15.5,30.5-21.1,46.7c-10.3,5-20.3,11.3-27.8,20.1
		c-4,4.8-7.2,10.8-6.9,17.3c0,5.6,5.2,9.9,10.4,11c4.3,0.5,8.5-1.1,12.5-2.2c-1,5.9-2,11.9-2.5,17.9c-0.7,7.8-1.2,15.7,0.5,23.4
		c0.9,4.4,2.9,8.6,6.3,11.6c1.9,1.8,4.4,2.7,6.8,3.8c-4.3,2.2-8.8,4.6-13.8,4.3c-4.9-0.1-9.6-2.8-12.2-6.9c-3.5-5.3-4.1-12-4.3-18.2
		c0-9.7,1.2-19.4,3-28.9c-5.9,1.9-20.6,7.7-22.3-6.9c-2.3-18.9,23.5-32.2,33.5-37.1C65.1,278,70,264.8,77,252.7
		C83.4,243.1,92.2,235.1,102.1,229.1L102.1,229.1z"/>
	<path class="st3" d="M427.2,248.5c-1,0.6-2.1,1.1-3.1,1.7c-1.1,4-4.7,6.3-7.4,9.1c-2.5,2.6-5.7,4.4-9,5.8
		c-4.2,1.9-8.5,3.8-12.5,6.1c-3.9,2.1-6.7,5.6-9.7,8.7c-2-4.3-12.7-18.8-20.1-24.4c-5.9-4.4-10.3-10.5-12.9-17.3
		c-1.4-3.5-1.1-7.3-1.6-11c-0.4-0.6-0.8-1.2-1.3-1.8c-1.5,0.4-3,0.7-4.3,1.7c-2.9,2-6,3.9-9.4,4.8c-5.7,1.6-11.7,1.6-17.2,3.9
		c-4.5,1.9-9.5,0.5-14.2,1.9c-8.8,2.7,7.1,5.3,11,8.1c2.6,1.6,4.3,4.2,6.1,6.6c3.7,4.8,6.9,10.1,9.4,15.6c1.4,3,11.7,24.7,13.8,33.1
		c2.1,8.2,5.3,24.1,5.7,24.9c0.4,0.8,4.9,3.5,5.2,3.3c0.4-0.2-4.7-42.1-11.4-62.2c-1.7-5.6-5.1-10.5-7.4-15.8
		c-0.9-2.4-1.7-5.1-0.6-7.5c5.9-8.7,17.3,14.4,20.4,17.9c3.4,4.4,18.8,14.6,20.7,17.9c1.2,2.1,2.5,4.4,3,6.8
		c-0.7,7.6-0.6,15.3-2.5,22.8c-1.4,5.6-0.4,11.3-0.8,16.9c-0.2,2.8-0.5,7.7,0.1,8.4c0.6,0.6,2.4,0.5,3.1,0.2
		c0.7-0.3,0.6-17.7,3-26.9c0.7-7.8,2.3-15.8,7-22.3c2.3-3.2,6.3-4.3,9.8-5.6c5.2-1.7,9.5-5.2,14.4-7.4c4-2.7,7.7-5.8,11.8-8.4
		c3.1,1.1,6.5,1.7,9.2,3.6c1.6,1,2.2,2.8,3,4.4c-5.8,4.7-17.6,16.7-21.2,24.4c-4.9,9.7-16.2,28-15.8,28.6c0.5,0.7,3.6,1,4.2,0.9
		c0.7-0.1,12.8-20.8,21.5-29.1c14.2-13.5,28.9-17.2,39.2-19.5C463.2,274.1,438.9,265.2,427.2,248.5z"/>
	<path class="st3" d="M363.8,285.3c4-2.1,9.8,0.8,10,5.5c0.4,3.4-2.3,6.6-5.7,7c-3.5,0.7-7.2-1.6-8-5.1
		C359.2,289.7,361,286.5,363.8,285.3L363.8,285.3z"/>
	<path class="st3" d="M576.4,423c2.8-1.7,5.3-3.7,7.9-5.5c-4.7,7.4-10.9,13.7-17.8,19.1c-5.9,4.5-12.7,8.2-20.1,9.4
		c-4.9,0.8-9.7-1.2-13.5-4.1c-8.1,8.5-19.3,13.7-30.9,15c-8.9,1.3-18.1-2.1-24.4-8.2c-4.4,1.7-9.2,2.2-13.9,2.6
		c-4.6,7.7-11.1,14.3-19.3,18c-9.7,4.5-20.8,7-31.4,4.9c-5.6-1.1-10.8-3.8-15.3-7.3c-6.6,7.1-13.9,13.9-22.8,17.9
		c-4.7,2.1-9.9,3.7-15.1,2.6c-3-0.6-5.5-2.3-7.9-3.9c-7.5,8.2-18.1,13.2-29,14.9c-5.9,0.8-12.1,0.5-17.6-2.1
		c-3.2-1.4-5.9-3.6-8.6-5.9c-4.4,1.6-9,2.3-13.7,2.4c-3,4.6-6.4,9-10.6,12.5c-5.2,4.4-11.6,7.2-18.1,9.1c-9.1,2.6-19.1,3.3-28-0.3
		c-3.5-1.3-6.6-3.4-9.5-5.7c-12.2,13.6-29.6,22.3-47.6,24.9c-8.4,1.4-17.3-0.6-24.2-5.6c-6.9,7-24.6,23.1-44,15.5
		c-9.3-3.7-9.9-16.9-9.7-21.6c0.5-11.8,2.2-23.6,4.7-35.1c0,0-3.7,37,14.9,43.5c5.8,2,11.9,2.5,17.7,1c10.1-2.8,18.4-9.6,25.7-16.9
		c3.8,4.9,10.4,6,16.2,6.3c11.1,0,22-3.2,32.1-7.9c9-4.2,16.8-10.4,23.5-17.7c7.6,6.7,18.2,9.4,28.2,8c12.1-1.5,24.3-6.4,32.4-15.9
		c2.1-2.2,3.5-5,5.5-7.2c1.4-0.6,3.1-0.5,4.6-0.7c3.2-0.2,6.3-1.2,9.4-2.1c5.7,5.7,13.8,8.9,21.9,8.5c12.4-0.9,24.7-6.1,33.2-15.4
		c4.2,3.1,9.4,5.2,14.7,4.1c12.6-2.6,22.8-11.5,31.2-20.8c6,4.9,13.5,8,21.3,8.2c10.5,0.3,21-2.8,30-8.2c6.1-3.9,10.9-9.4,14.7-15.5
		c4.7-0.2,9.4-0.9,13.8-2.6c5.6,5.1,12.8,8.7,20.6,8.5c13-0.3,25.9-5.9,34.8-15.3c3.7,2.8,8.3,4.8,13.1,4.2
		C563.1,431.6,569.8,427.1,576.4,423L576.4,423z"/>
	<path class="st3" d="M18.9,451.7c-0.5-8.9,3.2-17.9,9.5-24.1c0,6-1.2,12.5,1.7,18.1c2,4.5,6.4,7.5,11.3,8.1c2.1,0.6,4-0.7,5.7-1.7
		c4.8-2.7,7.3-7.9,11.5-11.2c-0.5,3.5-1.4,6.9-2.4,10.3c-4,15.7-7.6,31.6-10.2,47.6c-2,12.6-2.7,25.5-1.1,38.3
		c2.8,23.2,30.1,9.2,32.8,8.1c-3.3,7.6-15,17-29,17c-20.2,0-14.1-37.3-12.1-50.3c3.1-19.5,7.9-38.6,12.7-57.8
		c-3.9,3.4-6.5,8.2-10.9,11c-4.1,2.4-9.6,2.2-13.4-0.8C21.2,461.6,19.1,456.6,18.9,451.7L18.9,451.7z"/>
	<path class="st1" d="M309.6,280.2c-0.1-1.4-0.5-3.5-2.3-3.3c-1.7,0.9-2.8,2.5-3.9,4c-5,6.8-9.7,13.7-15.2,20.1
		c-1.8,2-3.9,4.2-6.8,4.6c-1.9,0.2-4-0.9-4.5-2.9c-0.8-2.8-0.2-5.7,0.2-8.5c2.5-14.2,6.2-28.2,7-42.6c-0.1-5.2-1.4-10.6-4.7-14.7
		c-2.2-2.7-6.5-2.3-8.9-0.2c-2.9,2.6-4.8,6.1-6.3,9.6c-5.9,14.4-8.5,29.9-9.2,45.3c-4.3,7.3-9,14.7-15.8,20c-4,3.1-8.6,5.6-13.7,6.5
		c-4.6,0.8-9.2-2.2-10.9-6.4c-2.1-4.9-1.7-10.4-1.8-15.6c-0.3-3.7,2.4-6.4,4-9.4c12.1-19.7,27.2-37.6,37.5-58.4
		c3.8-7.6,6.3-16.3,4.5-24.8c-0.8-3.3-2.8-6.5-6.1-7.8c-4.6-1.9-9.6-0.4-14.1,1.1c-10.9,4.1-19.1,12.9-25.5,22.3
		c-7.3,10.9-12.3,23.2-16.2,35.7c-5.1,16.4-7.9,33.4-8.5,50.5c0,1.4-1,2.5-1.7,3.7c-4.6,6.4-9.5,12.7-14.7,18.6
		c-1.8,2-4,3.6-6.4,4.8c-1.1-0.9-2.4-1.7-2.5-3.2c-1.1-5.5-0.5-11.2,1-16.6c5.8-20,13.4-39.7,15.7-60.5c0.8-10.3,0.5-21.6-5.7-30.3
		c-2.9-4.4-7.8-7.1-13-7.7c-10.1-1.1-20.6,1.8-28.7,8.1c-7.4,5.8-13.6,13.1-18.9,21c-10.2,15.4-17.2,32.8-22.9,50.3
		c-8.6,4-17.1,8.5-24,15.1c-2.9,2.8-5.7,6.1-6.9,10c-0.3,1.2-0.8,2.8,0.3,3.8c3.5,0,6.7-1.3,9.9-2.5c4.9-1.9,9.8-3.7,14.6-5.5
		c-2.3,11.5-5,23-5.9,34.7c-0.5,6.4-1,13.1,0.6,19.4c0.7,2.8,2.6,6,5.9,5.8c5-0.1,8.9-3.7,12.7-6.5c3-2.1,5.6-4.7,7-8.1
		c2.5-5.4,1-11.4,1.6-17.1c0.1-12,1.1-23.9,2.5-35.7c12.1-3,24.4-5.1,36.6-7.4c-2.2,9-4.6,17.9-6.1,27.1c-1.1,6.8-1.6,13.9-0.1,20.7
		c0.8,4.2,3.7,8.6,8.2,9.2c7.2,1,14.4-1.8,20.3-5.8c9.4-6.5,17.3-15.2,22.7-25.4c2.5,6.4,7.2,12.1,13.7,14.5
		c8.6,3.2,18.4,1.7,26.7-1.7c10.9-5.2,19.2-14.8,25.1-25.2c1,5.4,2.5,11.5,7.2,14.9c3.6,2.7,8.3,1.8,12.3,0.5
		c10.6-3.5,18.8-12,25.1-21C306.3,299.6,310.7,290.1,309.6,280.2z M223,236.1c2.1-4.6,4.4-9.2,7.6-13.2c1.8-2.2,4.1-4.2,7-4.8
		c0.8,0.5,1.6,1.3,1.6,2.4c0.8,6.3-2.7,12-5.7,17.3c-6.9,11.4-14.4,22.6-20.3,34.6C215,259.9,217.8,247.5,223,236.1z M149.8,281.8
		c-12.8,3-25.7,5.8-38.7,8.4c2.6-10.9,6.4-21.8,12.7-31.2c4.2-6.4,10.3-11.9,17.8-13.9c2.6-0.7,5.6-1.1,7.9,0.7
		c3.4,2.6,3.9,7.2,4.3,11.2C154,265.4,151.8,273.7,149.8,281.8z"/>
	<path class="st1" d="M581.6,386.2c-1.4-2.1-5.1-1.8-6.5-0.2c-1.7,2.1-2.9,4.7-4.8,6.5c-2.4,2.3-3.9,3.7-7.1,3.4
		c-1.7-0.4-2.6-3.2-2.9-5.2c-0.3-6.7-0.6-11.1-0.4-18c0.1-5.9,0.3-12.1,3-17.5c1.8-4.3,4.1-8.4,5-13c-0.1-3.3-2.3-6.1-4.6-8.1
		c-3.2-2.8-7.6-4.5-11.8-3.3c-2.6,1-3.7,3.8-4.9,6c-7.3-1.8-14.8,0.5-21.5,3.3c-7.4,3.1-13.4,8.6-18.6,14.6
		c-8.3,9.7-14.3,21.5-16.8,34c-0.7,3.3-0.7,6.8-2.5,9.8c-2,3.4-3.9,7.1-7.1,9.5c-2.1,1.6-5.6,1.7-7-0.9c-0.6-1-1.2-2.1-1.7-3.2
		c-3-7.2-3.1-15.4-6.5-22.5c-0.1-0.2-0.2-0.4-0.3-0.6c-0.1-0.3-0.3-0.5-0.4-0.8c-0.1-0.1-0.1-0.2-0.2-0.3c0,0,0,0,0-0.1c0,0,0,0,0,0
		c-0.3-0.5-0.6-0.9-1-1.4c0,0,0,0,0,0c0,0-0.1-0.1-0.1-0.1c-1.1-1.3-2.4-2.5-4.1-2.9c-2.5-0.6-5.2,0.6-6.9,2.5
		c-4.7,5.1-10.7,15.9-9.6,18.3c0,0.8,3.6,3.5,5.1,5.2c1.3,1.4,2.5,2.9,3.3,4.7c0.4,0.8,0.6,1.7,0.7,2.6c0.8,6.4,0,13.7-4.8,18.4
		c-2.2,2.5-5.9,2.3-8.9,1.8c-1.5-0.5-2.6-1.5-3.5-2.8c-0.1-0.2-0.2-0.3-0.3-0.5c-2.6-4.6-2.6-10.1-2.8-15.3c0-7.5,0.4-14.9,1.5-22.2
		c0.7-4.4,1.5-8.8,2.6-13.1c0.8-3.2,1.8-6.4,2.9-9.6c3.3-1.4,7.1-3,10.4-4.3c11-4.3,21.9-9.8,29.9-18.7c6.1-6.7,9.6-16,8.1-25
		c-1-5.9-5.9-11.1-11.9-12.1c-5-0.8-10.2-0.1-14.8,1.9c-7.4,3.1-13.4,8.6-18.5,14.7c-8.2,9.8-14.5,22.4-19.6,34
		c-9.4,1-16-3.6-18.5-9.6c-1.1-2.6-2.1-8.5-4.9-8.7c-1.9-0.1-3,1.6-3.4,3c-2.5,8.6,5.3,17.8,9.7,20.9c5.2,3.4,8.8,4.2,12.7,5.2
		c-4.4,13-8.2,26.4-9.4,40.1c-0.3,2-0.1,4.3-1.6,5.9c-4,5.5-8,11-12.4,16.2c-2.7,3.1-5.4,6.3-9,8.4c-2.4-2.7-2.5-6.4-2.8-9.8
		c-0.1-6.7-0.1-13.3,0.1-20c0.3-3.1,0.3-6.3,1.5-9.3c1.9-4.7,4.4-9.1,5.6-14c0.5-3.6-2.1-6.7-4.6-9c-3.2-2.7-7.7-4.7-11.8-3.2
		c-2.5,1-3.6,3.7-4.8,5.9c-7.3-1.6-14.7,0.5-21.3,3.3c-7.8,3.2-14.2,9.1-19.6,15.6c-9.1,10.7-15,24-16.9,37.8
		c-0.5,3.7-2.7,6.7-4.6,9.8c-1.8,2.7-4.2,5.8-7.8,6c-2.1,0-3.5-1.8-4.3-3.5c-4.1-8.1-3.6-17.8-8.1-25.8c-1.4-2.5-3.8-4.8-6.8-4.7
		c-2.5,0-4.6,1.7-6.1,3.5c-4.2,5-8.7,15-8.7,17.4c-0.1,5.3,7.6,5.3,9,11.7c1,6.6,0.4,14.1-4.5,19.1c-3.5,3.7-10.7,3.3-13-1.5
		c-2.6-4.6-2.6-10.1-2.8-15.3c0-15.4,1.9-30.3,7-44.9c3.3-1.4,7.1-3,10.4-4.3c11-4.3,21.9-9.8,29.9-18.7c6.1-6.7,9.6-16,8.1-25
		c-1-5.9-5.9-11.1-11.9-12.1c-5-0.8-10.2-0.1-14.8,1.9c-7.4,3.1-13.4,8.6-18.5,14.7c-8.2,9.8-14.5,22.4-19.6,34
		c-9.4,1-16-3.6-18.5-9.6c-1.1-2.6-2-8.8-5-8.6c-1.8-0.5-3,1.5-3.4,2.9c-2.5,8.6,5.3,17.8,9.7,20.9c5.3,3.5,9,4.2,12.9,5.3
		c-4.3,12.4-8.1,25.9-9.5,39c-0.4,2.9,0,6.2-1.9,8.6c-3.2,4.7-6.8,9-10.8,13.1c-5.7,5.7-12.5,10.6-20.5,12.4
		c-4.2,0.9-9,1.1-12.7-1.5c-3.3-2.6-2.9-7.3-2.9-11.1c10.6-8.1,23.4-13.6,31.8-24.2c5-5.9,7-14.2,5.4-21.7c-1-4.3-4.4-8-8.8-8.9
		c-5.5-1-11.1,0.4-16.1,2.5c-9.1,3.9-16.5,11-22,19.1c-6.7,9.8-11,21.1-13.1,32.8c-0.5,2.5-0.4,5.2-2,7.3c-4.1,5.4-8,11-12.8,15.8
		c-1.6,1.5-3.8,3.4-6.2,2.6c-2.2-1.1-3.1-3.7-4-5.8c-3.8-10-4.9-20.8-9.5-30.4c11.8-10.1,20.6-23.1,27.5-36.9
		c4.9-10.1,9.3-20.8,9.8-32.2c0-3.5-0.1-7.4-2.1-10.5c-1.3-2-4-2-6-1.6c-2.8,0.6-5.7,1.3-8.2,2.6c-1.9,0.9-2.6,3-3.2,4.8
		c-5,14.9-9.8,29.9-15.8,44.4c-3.5,8.2-9,15.9-16.6,20.8c-5.2,3.2-10.7,6.1-15.6,9.8c3.1-12.8,6.7-25.5,9-38.4c0.6-2.9,0.6-6,2-8.8
		c2-4.3,3.2-9.1,2.7-13.9c-0.3-3.1-4-4.3-6.6-3.4c-15.6,4-31.2,9.5-44.3,19c-4.7,3.5-9,7.9-10.7,13.6c-1.3,4.4-1.7,9.7,1.7,13.3
		c1.3-0.6,2.7-1.2,3.6-2.4c2.8-3.3,5.7-6.8,9.3-9.3c6.2-4.6,13.5-7.3,20.8-9.2c-7.7,22-13,44.7-17.4,67.5c-2.5,14.2-5,28.8-2.8,43.3
		c0.3,1.5,1,3.3,2.6,3.7c2.8,0.3,5.5-0.8,8.2-1.6c4.5-1.6,9.3-3.8,11.7-8.2c1.5-2.6,1.1-5.7,1.2-8.5c0.5-15.4,3.5-30.6,6.7-45.7
		c5.5-0.2,10.6-2.4,15.7-3.9c3.5,13.6,3.3,27.9,7.1,41.4c1.2,4.2,4,8.4,8.4,9.7c4.9,1.1,10-0.4,14.4-2.6
		c9.2-4.7,16.4-12.3,22.4-20.6c1.9,3.9,4.8,7.5,8.7,9.5c4.7,2.5,10.3,2.2,15.5,1.7c9.3-1.7,18.3-5,26.3-10.1
		c8.7-5.5,15.8-13.4,20.8-22.3c1.7,5.3,4.7,10.4,9.7,13c8.8,4.9,19.6,3.3,28.6-0.2c9.7-3.4,17.2-11.6,20.6-21.2
		c5.2,1.2,10.9,1.5,15.9-0.9c2.4-0.9,4.2-3,6.3-4.3c2.1,4.2,5,8.2,9.3,10.3c6.9,3.3,14.9,1.5,21.7-1c10.1-3.6,17.5-12.3,22.1-21.8
		c1,3.7,1.9,7.6,4.2,10.7c1.4,1.9,3.8,3.3,6.2,3.1c5.4-0.8,10.3-3.6,14.6-6.7c7.4-5.5,13.7-12.2,18.4-20.1c0.5-0.7,0.6-1.2,1-1.9
		c0.5,1.4,1,2.9,1.7,4.3c0.7,1.4,1.4,2.8,2.4,4c1.5,2,3.3,3.6,5.6,4.8c8.8,4.9,19.6,3.3,28.6-0.2c9.7-3.4,17.2-11.6,20.6-21.2
		c5.2,1.2,10.9,1.5,15.9-0.9c2.4-0.9,4.2-3,6.3-4.3c0.2,0.5,0.5,1,0.8,1.5c0.9,1.7,2,3.3,3.3,4.7c1.1,1.2,2.2,2.3,3.6,3.1v-0.1
		c1,0.6,2,1.1,3.1,1.5c7.3,2.7,15.3,0.3,22.2-2.5c9.2-3.9,15.5-12.2,20.2-20.7c0.9,3.8,1.8,7.8,4.4,10.9c1.6,2.2,4.5,3.2,7.2,2.5
		c7.3-1.7,13.5-6.2,18.9-11.2c3.8-3.8,7.6-7.8,9.1-13.3C582.9,391.2,583.5,388.3,581.6,386.2z M278.5,368.5c1.9-1.7,4.1-3.6,6.8-3.4
		c2.1,0.9,2.4,3.5,2.4,5.5c-0.2,4.5-2.9,8.5-6,11.6c-5.6,5.9-12.9,9.6-20.2,12.9C265.9,385.6,270.9,375.9,278.5,368.5z M186.5,437.3
		c1.6-3.1,4.2-5.9,7.8-6.4c1.7-0.3,3.7,1,3.7,2.9c0.2,3.5-1.6,6.7-3.8,9.3c-3.8,4.4-8.4,7.9-12.6,12
		C182.5,449,183.7,442.8,186.5,437.3z M362.7,413.2c-0.1,4.2,0.3,8.5-0.9,12.6c-1.9,6.8-5.3,13.2-10.4,18.1c-3.4,3.1-8,5.7-12.8,4.9
		c-3.1-0.8-4.4-4.2-4.9-7c-1.3-10.6,1.1-21.7,6.6-30.8c6-9.7,14.6-18,25-22.8C363.7,396.4,362.9,404.8,362.7,413.2z M457.2,327.5
		c1.9-1.7,4.1-3.6,6.8-3.4c2.1,0.9,2.4,3.5,2.4,5.5c-0.2,4.5-2.9,8.5-6,11.6c-5.6,5.9-12.9,9.6-20.2,12.9
		C444.5,344.6,449.5,335,457.2,327.5z M541.1,372.5c-0.2,4.3,0.4,8.8-1.1,13c-2.2,6.9-5.8,13.7-11.5,18.3c-3,2.3-6.8,4.2-10.6,4
		c-4.1-0.6-5.6-5.1-5.9-8.7c-0.8-9.1,1.1-18.4,5.3-26.6c5.9-11,15.2-20.2,26.5-25.7C542.3,355.4,541.4,364,541.1,372.5z"/>
</g>
</svg>
